<svg xmlns="http://www.w3.org/2000/svg" width="13.312" height="10.69" viewBox="0 0 13.312 10.69">
  <metadata><?xpacket begin="﻿" id="W5M0MpCehiHzreSzNTczkc9d"?>
<x:xmpmeta xmlns:x="adobe:ns:meta/" x:xmptk="Adobe XMP Core 5.6-c138 79.159824, 2016/09/14-01:09:01        ">
   <rdf:RDF xmlns:rdf="http://www.w3.org/1999/02/22-rdf-syntax-ns#">
      <rdf:Description rdf:about=""/>
   </rdf:RDF>
</x:xmpmeta>
                                                                                                    
                                                                                                    
                                                                                                    
                                                                                                    
                                                                                                    
                                                                                                    
                                                                                                    
                                                                                                    
                                                                                                    
                                                                                                    
                                                                                                    
                                                                                                    
                                                                                                    
                                                                                                    
                                                                                                    
                                                                                                    
                                                                                                    
                                                                                                    
                                                                                                    
                                                                                                    
                           
<?xpacket end="w"?></metadata>
<defs>
    <style>
      .cls-1 {
        fill: #b998ef;
        fill-rule: evenodd;
      }
    </style>
  </defs>
  <path id="_" data-name="" class="cls-1" d="M995.844,6829.08l-5.344,3.34-5.344-3.34v1.34l5.344,3.32,5.344-3.32v-1.34Zm0.937-.94a1.286,1.286,0,0,1,.375.94v8a1.27,1.27,0,0,1-.375.94,1.376,1.376,0,0,1-.937.4H985.156a1.376,1.376,0,0,1-.937-0.4,1.27,1.27,0,0,1-.375-0.94v-8a1.286,1.286,0,0,1,.375-0.94,1.376,1.376,0,0,1,.937-0.4h10.688A1.376,1.376,0,0,1,996.781,6828.14Z" transform="translate(-983.844 -6827.75)"/>
</svg>
