<svg xmlns="http://www.w3.org/2000/svg" width="15.22" height="13.28" viewBox="0 0 15.22 13.28">
  <metadata><?xpacket begin="﻿" id="W5M0MpCehiHzreSzNTczkc9d"?>
<x:xmpmeta xmlns:x="adobe:ns:meta/" x:xmptk="Adobe XMP Core 5.6-c138 79.159824, 2016/09/14-01:09:01        ">
   <rdf:RDF xmlns:rdf="http://www.w3.org/1999/02/22-rdf-syntax-ns#">
      <rdf:Description rdf:about=""/>
   </rdf:RDF>
</x:xmpmeta>
                                                                                                    
                                                                                                    
                                                                                                    
                                                                                                    
                                                                                                    
                                                                                                    
                                                                                                    
                                                                                                    
                                                                                                    
                                                                                                    
                                                                                                    
                                                                                                    
                                                                                                    
                                                                                                    
                                                                                                    
                                                                                                    
                                                                                                    
                                                                                                    
                                                                                                    
                                                                                                    
                           
<?xpacket end="w"?></metadata>
<defs>
    <style>
      .cls-1 {
        fill: #4cc4f4;
        fill-rule: evenodd;
      }
    </style>
  </defs>
  <path id="Shape_9_copy_2" data-name="Shape 9 copy 2" class="cls-1" d="M1281.06,6831.89l3.5,1.31,1.36,4.36a0.42,0.42,0,0,0,.66.2l1.95-1.59a0.572,0.572,0,0,1,.71-0.02l3.53,2.56a0.411,0.411,0,0,0,.64-0.25l2.59-12.43a0.42,0.42,0,0,0-.56-0.47l-14.39,5.56A0.412,0.412,0,0,0,1281.06,6831.89Zm4.64,0.61,6.85-4.22a0.122,0.122,0,0,1,.15.19l-5.66,5.26a1.16,1.16,0,0,0-.36.7l-0.19,1.43a0.18,0.18,0,0,1-.35.02l-0.74-2.6A0.7,0.7,0,0,1,1285.7,6832.5Z" transform="translate(-1280.78 -6825.53)"/>
</svg>
