<svg xmlns="http://www.w3.org/2000/svg" width="15.219" height="13.28" viewBox="0 0 15.219 13.28">
  <metadata><?xpacket begin="﻿" id="W5M0MpCehiHzreSzNTczkc9d"?>
<x:xmpmeta xmlns:x="adobe:ns:meta/" x:xmptk="Adobe XMP Core 5.6-c138 79.159824, 2016/09/14-01:09:01        ">
   <rdf:RDF xmlns:rdf="http://www.w3.org/1999/02/22-rdf-syntax-ns#">
      <rdf:Description rdf:about=""/>
   </rdf:RDF>
</x:xmpmeta>
                                                                                                    
                                                                                                    
                                                                                                    
                                                                                                    
                                                                                                    
                                                                                                    
                                                                                                    
                                                                                                    
                                                                                                    
                                                                                                    
                                                                                                    
                                                                                                    
                                                                                                    
                                                                                                    
                                                                                                    
                                                                                                    
                                                                                                    
                                                                                                    
                                                                                                    
                                                                                                    
                           
<?xpacket end="w"?></metadata>
<defs>
    <style>
      .cls-1 {
        fill: #b998ef;
        fill-rule: evenodd;
      }
    </style>
  </defs>
  <path id="Shape_9_copy_4" data-name="Shape 9 copy 4" class="cls-1" d="M981.058,6766.89l3.506,1.31,1.357,4.36a0.415,0.415,0,0,0,.655.2l1.955-1.59a0.573,0.573,0,0,1,.711-0.02l3.525,2.56a0.417,0.417,0,0,0,.647-0.25L996,6761.03a0.415,0.415,0,0,0-.553-0.47l-14.389,5.56A0.411,0.411,0,0,0,981.058,6766.89Zm4.644,0.61,6.853-4.22a0.12,0.12,0,0,1,.144.19l-5.655,5.26a1.155,1.155,0,0,0-.364.7l-0.192,1.43a0.177,0.177,0,0,1-.346.02l-0.741-2.6A0.693,0.693,0,0,1,985.7,6767.5Z" transform="translate(-980.781 -6760.53)"/>
</svg>
