<svg xmlns="http://www.w3.org/2000/svg" width="37.625" height="32.75" viewBox="0 0 37.625 32.75">
  <metadata><?xpacket begin="﻿" id="W5M0MpCehiHzreSzNTczkc9d"?>
<x:xmpmeta xmlns:x="adobe:ns:meta/" x:xmptk="Adobe XMP Core 5.6-c138 79.159824, 2016/09/14-01:09:01        ">
   <rdf:RDF xmlns:rdf="http://www.w3.org/1999/02/22-rdf-syntax-ns#">
      <rdf:Description rdf:about=""/>
   </rdf:RDF>
</x:xmpmeta>
                                                                                                    
                                                                                                    
                                                                                                    
                                                                                                    
                                                                                                    
                                                                                                    
                                                                                                    
                                                                                                    
                                                                                                    
                                                                                                    
                                                                                                    
                                                                                                    
                                                                                                    
                                                                                                    
                                                                                                    
                                                                                                    
                                                                                                    
                                                                                                    
                                                                                                    
                                                                                                    
                           
<?xpacket end="w"?></metadata>
<defs>
    <style>
      .cls-1 {
        fill: #fff;
        fill-rule: evenodd;
      }
    </style>
  </defs>
  <path class="cls-1" d="M813.556,6627l8.67,3.24,3.356,10.79a1.021,1.021,0,0,0,1.621.49l4.834-3.94a1.423,1.423,0,0,1,1.757-.05l8.718,6.33a1.027,1.027,0,0,0,1.6-.62l6.385-30.72a1.022,1.022,0,0,0-1.368-1.16l-35.585,13.73A1.021,1.021,0,0,0,813.556,6627Zm11.485,1.51,16.946-10.43a0.292,0.292,0,0,1,.357.46l-13.986,13a2.908,2.908,0,0,0-.9,1.74l-0.476,3.53a0.438,0.438,0,0,1-.856.06l-1.832-6.44A1.709,1.709,0,0,1,825.041,6628.51Z" transform="translate(-812.875 -6611.28)"/>
</svg>
