<svg xmlns="http://www.w3.org/2000/svg" width="16.75" height="9.46" viewBox="0 0 16.75 9.46">
  <metadata><?xpacket begin="﻿" id="W5M0MpCehiHzreSzNTczkc9d"?>
<x:xmpmeta xmlns:x="adobe:ns:meta/" x:xmptk="Adobe XMP Core 5.6-c138 79.159824, 2016/09/14-01:09:01        ">
   <rdf:RDF xmlns:rdf="http://www.w3.org/1999/02/22-rdf-syntax-ns#">
      <rdf:Description rdf:about=""/>
   </rdf:RDF>
</x:xmpmeta>
                                                                                                    
                                                                                                    
                                                                                                    
                                                                                                    
                                                                                                    
                                                                                                    
                                                                                                    
                                                                                                    
                                                                                                    
                                                                                                    
                                                                                                    
                                                                                                    
                                                                                                    
                                                                                                    
                                                                                                    
                                                                                                    
                                                                                                    
                                                                                                    
                                                                                                    
                                                                                                    
                           
<?xpacket end="w"?></metadata>
<defs>
    <style>
      .cls-1 {
        fill: #b797ed;
        fill-rule: evenodd;
      }
    </style>
  </defs>
  <path class="cls-1" d="M997.187,6899.9c0.555,0.55,1.142,1.06,1.641,1.66a4.88,4.88,0,0,1,.589.84,0.611,0.611,0,0,1-.372.95H996.6a1.892,1.892,0,0,1-1.555-.63c-0.339-.35-0.651-0.71-0.977-1.07a2.228,2.228,0,0,0-.439-0.39,0.509,0.509,0,0,0-.814.2,2.538,2.538,0,0,0-.256,1.14,0.65,0.65,0,0,1-.778.75,6.253,6.253,0,0,1-3.5-.75,7.821,7.821,0,0,1-2.352-2.2,29.721,29.721,0,0,1-3.094-5.52c-0.2-.44-0.053-0.67.427-0.68q1.2-.015,2.391,0a0.707,0.707,0,0,1,.663.5,14.674,14.674,0,0,0,1.621,3,2.45,2.45,0,0,0,.612.67,0.37,0.37,0,0,0,.632-0.18,2.1,2.1,0,0,0,.141-0.63,9.447,9.447,0,0,0-.039-2.21,0.921,0.921,0,0,0-.784-0.84c-0.233-.05-0.2-0.13-0.086-0.27a0.875,0.875,0,0,1,.749-0.37h2.761a0.661,0.661,0,0,1,.59.72l0,3.07a0.889,0.889,0,0,0,.39.78,0.55,0.55,0,0,0,.551-0.27,9.5,9.5,0,0,0,1.554-2.39c0.187-.38.347-0.77,0.5-1.16a0.6,0.6,0,0,1,.625-0.43l2.656,0.01a1.832,1.832,0,0,1,.235.01,0.458,0.458,0,0,1,.431.7,6.689,6.689,0,0,1-1.055,1.84c-0.443.61-.917,1.2-1.356,1.82a0.825,0.825,0,0,0,.13,1.33h0Z" transform="translate(-982.75 -6893.88)"/>
</svg>
